<svg width="640" height="640" xmlns="http://www.w3.org/2000/svg">
 <!--! Font Awesome Free 6.0.0-beta3 by @fontawesome - https://fontawesome.com License - https://fontawesome.com/license/free (Icons: CC BY 4.0, Fonts: SIL OFL 1.1, Code: MIT License) Copyright 2021 Fonticons, Inc. -->

 <g>
  <title>Layer 1</title>
  <path stroke="null" id="svg_1" d="m218.3,10.57441c12.3,-14.09955 31.1,-14.09955 43.4,0l208,239.2674c6.7,7.72578 10.3,18.31757 10.3,29.2832l-144,0c-19.1,0 -36.3,10.46719 -48,27.04023l0,-46.97773c0,-10.96562 -7.2,-19.9375 -16,-19.9375l-64,0c-8.8,0 -16,8.97187 -16,19.9375l0,79.74999c0,10.96562 7.2,19.9375 16,19.9375l63.1,0l0,159.49997l-159.1,0c-26.51,0 -48,-26.79101 -48,-59.81249l0,-139.56247l-32,0c-13.17,0 -25.004,-10.09336 -29.802,-25.2957c-4.798,-15.32695 -1.5835,-32.77226 8.102,-43.86249l208,-239.2674zm117.7,308.42559l224,0c17.7,0 32,17.81914 32,39.87499l0,199.37496l32,0c8.8,0 16,8.97187 16,19.9375c0,33.02148 -21.5,59.81249 -48,59.81249l-288.9,0c-25.6,0 -48,-26.79101 -48,-59.81249c0,-10.96562 8.1,-19.9375 16,-19.9375l32,0l0,-199.37496c0,-22.05586 15.2,-39.87499 32.9,-39.87499zm16,59.81249l0,179.43747l192,0l0,-179.43747l-192,0z" fill="#9f9f9f"/>
 </g>
</svg>