<svg width="640" height="640" xmlns="http://www.w3.org/2000/svg">
 <!--! Font Awesome Free 6.0.0-beta3 by @fontawesome - https://fontawesome.com License - https://fontawesome.com/license/free (Icons: CC BY 4.0, Fonts: SIL OFL 1.1, Code: MIT License) Copyright 2021 Fonticons, Inc. -->
 <rect fill="#4a90e2" height="640" width="640" y="0" x="0" rx="80"/>
 <path fill="#E0E0E0" d="m225.92754,91.04968c11.3775,-10.46638 28.7675,-10.46638 40.145,0l192.4,177.61295c6.1975,5.735 9.5275,13.5975 9.5275,21.7375l-133.2,0c-17.6675,0 -33.5775,7.77 -44.4,20.0725l0,-34.8725c0,-8.14 -6.66,-14.8 -14.8,-14.8l-59.2,0c-8.14,0 -14.8,6.66 -14.8,14.8l0,59.2c0,8.14 6.66,14.8 14.8,14.8l58.3675,0l0,118.4l-147.1675,0c-24.52175,0 -44.4,-19.8875 -44.4,-44.4l0,-103.6l-29.6,0c-12.18225,0 -23.1287,-7.4925 -27.56685,-18.7775c-4.43815,-11.3775 -1.46474,-24.3275 7.49435,-32.56l192.4,-177.61295zm108.8725,228.95045l207.2,0c16.3725,0 29.6,13.2275 29.6,29.6l0,148l29.6,0c8.14,0 14.8,6.66 14.8,14.8c0,24.5125 -19.8875,44.4 -44.4,44.4l-267.2325,0c-23.68,0 -44.4,-19.8875 -44.4,-44.4c0,-8.14 7.4925,-14.8 14.8,-14.8l29.6,0l0,-148c0,-16.3725 14.06,-29.6 30.4325,-29.6zm14.8,44.4l0,133.2l177.6,0l0,-133.2l-177.6,0z" id="svg_1" stroke="null"/>
</svg>